<?xml version="1.0" standalone="no"?><!DOCTYPE svg PUBLIC "-//W3C//DTD SVG 1.1//EN" "http://www.w3.org/Graphics/SVG/1.1/DTD/svg11.dtd"><svg t="1715361500490" class="icon" viewBox="0 0 1024 1024" version="1.1" xmlns="http://www.w3.org/2000/svg" p-id="6091" xmlns:xlink="http://www.w3.org/1999/xlink" width="200" height="200"><path d="M584.128 395.52c107.52 0 197.568 70.592 223.552 166.144h9.28c113.92 0 207.04 89.6 207.04 199.168C1024 870.4 930.816 960 816.96 960H336.896c-82.432 0-149.888-64.832-149.888-144.128 0-79.296 67.456-144.256 149.888-144.128h20.608l1.472-2.624a213.952 213.952 0 0 1-6.336-51.008c0-122.944 103.68-222.592 231.488-222.592z m-434.88 254.08a40.448 40.448 0 0 1 55.424 0l1.728 1.664a36.8 36.8 0 0 1 0 53.312l-28.992 27.84a40.448 40.448 0 0 1-55.36 0l-1.728-1.664a36.8 36.8 0 0 1 0-53.248z m252.096-405.696a216.96 216.96 0 0 1 193.088 115.584 265.344 265.344 0 0 0-35.264-2.816c-137.728 0-249.344 107.328-249.344 239.744 0 16.192 2.176 31.872 5.44 47.04-76.8-32-130.624-105.472-130.624-191.104C184.64 337.28 281.6 243.84 401.28 243.84z m-321.216 169.6c21.376 0 39.04 16.896 39.04 37.632v2.304a38.528 38.528 0 0 1-39.168 37.632H39.168A38.528 38.528 0 0 1 0 453.44v-2.304c0-20.736 17.6-37.696 39.168-37.696h40.96z m97.28-227.648l28.992 27.904a36.8 36.8 0 0 1 0 53.248l-1.728 1.664a40.448 40.448 0 0 1-55.424 0l-28.928-27.84a36.8 36.8 0 0 1 0-53.312l1.728-1.664a40.448 40.448 0 0 1 55.36 0z m445.44-6.912a40.32 40.32 0 0 1 55.104-4.16l1.856 1.536c16.384 13.44 18.304 37.312 4.352 53.056l-26.56 29.952a40.32 40.32 0 0 1-55.168 4.16l-1.856-1.536a36.8 36.8 0 0 1-4.352-53.12zM402.56 64c21.504 0 39.168 16.96 39.168 37.632v39.424a38.528 38.528 0 0 1-39.168 37.696h-2.368a38.528 38.528 0 0 1-39.168-37.696v-39.424c0-20.672 17.6-37.632 39.168-37.632h2.368z"  p-id="6092"></path></svg>