<?xml version="1.0" standalone="no"?><!DOCTYPE svg PUBLIC "-//W3C//DTD SVG 1.1//EN" "http://www.w3.org/Graphics/SVG/1.1/DTD/svg11.dtd"><svg t="1715361807459" class="icon" viewBox="0 0 1024 1024" version="1.1" xmlns="http://www.w3.org/2000/svg" p-id="5034" xmlns:xlink="http://www.w3.org/1999/xlink" width="200" height="200"><path d="M512 0c4.096 4.096 10.24 8.192 12.288 14.336 18.432 26.624 36.864 51.2 53.248 79.872 45.056 73.728 86.016 147.456 118.784 227.328 12.288 28.672 22.528 57.344 26.624 88.064 8.192 38.912 2.048 77.824-14.336 114.688-32.768 71.68-88.064 116.736-165.888 129.024-114.688 18.432-223.232-61.44-243.712-176.128-8.192-45.056 0-86.016 20.48-124.928 16.384-30.72 34.816-59.392 55.296-88.064 28.672-43.008 57.344-86.016 81.92-133.12 20.48-38.912 36.864-79.872 51.2-120.832 2.048-6.144 2.048-8.192 4.096-10.24z"  p-id="5035"></path><path d="M88.064 489.472s67.584 208.896 438.272 219.136C897.024 718.848 954.368 491.52 954.368 491.52s-8.192 323.584-428.032 321.536S88.064 489.472 88.064 489.472z"  p-id="5036"></path><path d="M2.048 602.112s45.056 270.336 526.336 282.624c481.28 14.336 491.52-280.576 491.52-280.576s51.2 419.84-491.52 417.792S2.048 602.112 2.048 602.112z"  p-id="5037"></path></svg>