<svg viewBox="0 0 1024 1024" xmlns="http://www.w3.org/2000/svg"><path d="M744.377 419.859h-499.45s-13.9 572.844-159.585 604.041h853.216c-145.585-137.287-194.18-604.041-194.18-604.041zM411.41 249.776c48.595-6.2 152.585 0 221.978-87.392C688.883 93.691 612.59 37.496 612.59 37.496 557.096 0 494.702 0 494.702 0s90.19 18.698 83.192 74.893c-13.9 56.194-48.596 99.89-187.282 118.588-138.687 18.698-83.292 149.885-83.292 149.885-13.799-62.293 76.393-93.59 104.09-93.59z m312.17-31.197c-6.9 31.197-20.799 49.995-97.091 62.394-76.293 12.498-48.595 81.192-48.595 81.192-6.9-31.197 41.596-49.995 55.494-49.995 27.797 0 83.192 0 117.889-43.696 27.797-37.497-13.899-68.694-13.899-68.694-27.797-18.698-55.495-18.698-55.495-18.698s48.596 6.3 41.696 37.497z"></path></svg>