<svg viewBox="0 0 960 960" xmlns="http://www.w3.org/2000/svg" xmlns:xlink="http://www.w3.org/1999/xlink"><path d="M386.439 494.505c0 69.22 56.328 125.549 125.549 125.549 69.22 0 125.549-56.329 125.549-125.549s-56.329-125.549-125.549-125.549c-69.221 0-125.549 56.329-125.549 125.549z" data-spm-anchor-id="a313x.search_index.0.i20.3c5e3a81CdTqhg"></path><path d="M689.137 83.039c-8.864-3.822-19.198 0-23.295 8.755l-91.57 194.666c-2.103 4.52-2.243 9.423-0.421 14.048 1.859 4.623 5.535 7.776 10.159 9.599 82.813 32.367 133.746 115.738 123.866 204.085-0.523 4.939 0.984 7.988 4.205 11.769 3.224 3.784 7.883 2.21 12.823 2.453l215.015 1.962h0.839c9.284 0 17.097 0.42 17.868-8.931 14.958-191.129-93.322-362.74-269.489-438.406zM313.961 540.044a17.824 17.824 0 0 0 3.505-13.836c-14.399-87.751 32.123-174.592 113.112-211.199 4.552-2.065 7.985-5.885 9.599-10.577 1.61-4.697 1.19-9.88-1.159-14.224L337.572 100.447c-4.552-8.545-15.099-11.909-23.714-7.67C141.787 177.445 42.93 362.02 67.803 552.097c1.191 9.035 8.864 15.622 17.76 15.622 0.596 0 1.154-0.036 1.717-0.069l214.177-20.669a17.987 17.987 0 0 0 12.504-6.937zM657.646 655.294a17.832 17.832 0 0 0-11.981-7.742 17.948 17.948 0 0 0-13.872 3.469c-68.205 52.337-171.371 52.368-239.608 0-3.923-3.049-9.039-4.275-13.839-3.469a17.962 17.962 0 0 0-12.012 7.742l-119.386 179.04c-5.323 8.057-3.361 18.882 4.483 24.52 76.297 54.683 166.396 83.584 260.557 83.584 94.162 0 184.259-28.901 260.557-83.584 7.846-5.639 9.806-16.464 4.484-24.52l-119.383-179.04z"></path></svg>