<svg viewBox="0 0 1024 1024" xmlns="http://www.w3.org/2000/svg"><path d="M819.2 0c16 0.576 32 1.088 47.808 3.2 7.04 1.088 14.336 1.92 20.8 5.056 8.064 4.992 11.84 14.4 14.336 23.168 4.736 18.112 5.12 36.928 5.952 55.488 0.64 26.432 2.496 52.864 3.904 79.296 11.968 213.056 24.704 426.048 40.064 638.848 1.28 22.144 3.84 44.16 6.08 66.176 1.472 17.408 2.88 35.008 0.768 52.416-1.28 9.472-3.776 19.328-10.048 26.88a28.288 28.288 0 0 1-16.768 9.472H92.928A53.824 53.824 0 0 1 64 931.2V472.64c4.48-10.304 12.48-18.56 20.928-25.792 17.728-14.784 38.272-25.472 57.28-38.464 35.072-22.848 5.76-46.336 41.216-68.736 6.976-4.48 14.208-8.576 20.736-13.632 13.696-9.92 27.264-20.992 43.584-26.24a39.04 39.04 0 0 1 35.2 4.48c7.808 5.76 11.776 15.232 13.76 24.448 3.072 14.592 2.624 29.632 2.112 44.48-0.896 23.488-3.008 47.104-0.896 70.592a55.872 55.872 0 0 0 26.24-3.2c16.96-6.272 30.208-19.072 44.8-29.44 29.568-19.712 58.88-39.808 88.448-59.648 15.552-10.624 31.616-20.48 46.848-31.552 13.184-9.152 26.88-18.56 42.56-22.848a35.008 35.008 0 0 1 30.72 4.928c7.68 6.08 11.52 15.68 13.44 25.024 3.008 14.784 2.56 30.016 2.112 45.056-0.768 23.168-3.392 46.464-1.152 69.696h73.024c0.96 43.264 0.512 86.592 0.32 129.856h12.352l35.712-406.528c2.304-33.28 2.752-66.752 7.424-99.84 2.368-14.976 4.992-30.336 11.584-44.16 3.008-5.888 6.912-11.904 13.12-14.72 4.416-1.92 9.152-2.688 13.824-3.456 15.808-2.368 31.872-2.816 47.808-3.008h12.16z m-17.28 768h-125.952c-4.224 0-8.448-0.192-12.544 0.832a30.976 30.976 0 0 0-22.208 22.272 33.536 33.536 0 0 0 6.4 30.144 29.248 29.248 0 0 0 22.272 10.752h132.16a30.272 30.272 0 0 0 27.84-20.16 33.856 33.856 0 0 0-4.352-31.68 29.44 29.44 0 0 0-23.552-12.16z m-584.96-37.76c-13.76 2.304-24.576 12.544-24.896 23.808v52.16c-0.256 8.704 5.568 17.28 14.784 21.76a39.168 39.168 0 0 0 31.744 1.28c10.176-4.16 17.152-12.8 17.344-21.952v-52.16a23.296 23.296 0 0 0-9.984-18.56 37.824 37.824 0 0 0-28.992-6.4z m256 0.064c-13.76 2.304-24.576 12.544-24.896 23.808-0.128 17.728-0.064 35.456 0 53.12 0 13.44 15.232 25.088 32 24.768 16.64 0.32 31.744-11.328 31.872-24.64 0-18.112 0.192-36.16-0.128-54.272-0.896-14.912-20.736-26.56-38.848-22.784z m333.76-90.24c-27.2 0.192-54.4-0.384-81.536 0.256-7.68 1.28-14.72 7.68-18.368 16.64-5.888 13.888-2.24 32.896 7.872 41.472 5.76 5.504 13.184 5.824 20.032 5.44h72.96c9.472 0.192 18.624-7.744 22.336-19.2a40.256 40.256 0 0 0-3.648-33.152 22.528 22.528 0 0 0-19.648-11.52zM216.96 576.64c-10.88 1.92-20.096 8.576-23.424 17.024a21.76 21.76 0 0 0-1.536 7.872V653.696c0.192 9.344 7.552 18.304 18.176 22.208a39.04 39.04 0 0 0 32.448-2.304c8.32-4.736 13.44-12.8 13.248-20.928 0-17.728 0.256-35.52-0.128-53.184-0.896-14.912-20.672-26.496-38.784-22.784z m255.936 0c-13.824 2.304-24.576 12.608-24.96 23.872v52.032c-0.256 9.728 7.168 19.2 18.24 23.296 9.984 3.904 22.464 3.2 31.616-1.856 8.832-4.672 14.336-12.992 14.08-21.44 0-17.728 0.256-35.456-0.128-53.184-0.896-14.912-20.736-26.496-38.848-22.72z"></path></svg>