<svg t="1715362548936" viewBox="0 0 1024 1024" version="1.1" xmlns="http://www.w3.org/2000/svg" p-id="7507" xmlns:xlink="http://www.w3.org/1999/xlink" width="200" height="200"><path d="M740.9152 53.9648a130.8672 130.8672 0 0 1 130.9184 130.8672v368.2304a226.8672 226.8672 0 0 1 92.5696 138.24 227.1744 227.1744 0 0 1-30.0544 172.6976 225.792 225.792 0 0 1-143.7184 100.352 225.792 225.792 0 0 1-172.5952-30.4128 227.072 227.072 0 0 1-100.4032-143.5136 225.8944 225.8944 0 0 1 30.4128-172.7488 224.4608 224.4608 0 0 1 62.1056-64.6656V184.832a130.816 130.816 0 0 1 130.7648-130.8672h0.1024-0.1024zM257.536 720.128l46.1824 46.1312-102.1952 101.9392-46.08-46.1312 102.0928-101.9392z m516.0448-371.8144h-65.3312v300.1856a97.9968 97.9968 0 1 0 130.7648 92.4672v-0.1536c0-42.5472-27.2896-78.6432-65.3824-92.3136V348.3136z m-238.6432-134.0416c7.6288 0 15.36 0.3072 22.9376 0.9728v320.9216a273.7152 273.7152 0 0 0-91.5456 204.8c0 21.504 2.4064 42.3424 7.0144 62.3104a297.984 297.984 0 0 1-228.9152-353.4848 297.6768 297.6768 0 0 1 290.5088-235.52zM184.9344 479.0272v65.4848H54.016V479.0272h130.9184z m16.64-323.584l102.4512 101.9392-46.4896 46.1312-102.0416-102.0928 46.08-45.9776z m343.1424-101.4784V184.832H479.232V53.9648h65.4848z"  p-id="7508"></path></svg>