<?xml version="1.0" standalone="no"?><!DOCTYPE svg PUBLIC "-//W3C//DTD SVG 1.1//EN" "http://www.w3.org/Graphics/SVG/1.1/DTD/svg11.dtd"><svg t="1715267677934" class="icon" viewBox="0 0 1366 1024" version="1.1" xmlns="http://www.w3.org/2000/svg" p-id="1457" xmlns:xlink="http://www.w3.org/1999/xlink" width="266.796875" height="200"><path d="M682.666667 0C306.232889 0 0 305.066667 0 680.078222c0 113.180444 28.501333 225.308444 82.403556 324.181333C89.287111 1016.860444 102.314667 1024 115.768889 1024c6.115556 0 12.316444-1.479111 18.062222-4.579556 18.403556-9.955556 25.230222-32.910222 15.217778-51.228444-47.900444-87.836444-73.216-187.477333-73.216-288.113778C75.861333 346.737778 348.074667 75.548444 682.666667 75.548444c334.592 0 606.805333 271.189333 606.805333 604.501333 0 97.137778-23.665778 193.678222-68.437333 279.182222-9.699556 18.488889-2.474667 41.329778 16.071111 50.972444 18.545778 9.642667 41.472 2.474667 51.171556-16.014222C1338.680889 897.962667 1365.333333 789.333333 1365.333333 680.078222 1365.333333 305.066667 1059.100444 0 682.666667 0L682.666667 0zM1047.637333 396.202667l-92.956444 115.143111c-72.248889-68.124444-169.699556-109.937778-276.764444-109.937778-222.179556 0-402.972444 180.081778-402.972444 401.436444 0 10.439111 8.476444 18.915556 18.972444 18.915556 10.467556 0 18.972444-8.476444 18.972444-18.915556 0-200.504889 163.754667-363.662222 365.027556-363.662222 98.104889 0 187.192889 38.826667 252.871111 101.774222L696.32 831.431111c-5.916444-1.308444-12.060444-2.019556-18.375111-2.019556-47.132444 0-85.333333 38.058667-85.333333 84.992s38.200889 85.020444 85.333333 85.020444c47.132444 0 85.333333-38.058667 85.333333-85.020444 0-16.355556-4.721778-31.573333-12.743111-44.544l196.181333-312.775111c59.733333 64.768 96.256 151.096889 96.256 245.76 0 10.439111 8.504889 18.887111 18.972444 18.887111 10.467556 0 18.972444-8.448 18.972444-18.887111 0-108.231111-43.264-206.592-113.408-278.869333L1047.637333 396.202667 1047.637333 396.202667zM1047.637333 396.202667"  p-id="1458"></path></svg>