<svg viewBox="0 0 1024 1024" xmlns="http://www.w3.org/2000/svg"><path d="M388.4 578.6H139.5c-22.9 0-41.5-19.6-41.5-43.7v-393c0-24.1 18.6-43.7 41.5-43.7h248.9c22.9 0 41.5 19.6 41.5 43.7v393c0 24.2-18.6 43.7-41.5 43.7zM388.4 928H139.5c-22.9 0-41.5-19.6-41.5-43.7V709.6c0-24.1 18.6-43.7 41.5-43.7h248.9c22.9 0 41.5 19.6 41.5 43.7v174.7c0 24.1-18.6 43.7-41.5 43.7zM886.3 360.3H554.4c-22.9 0-41.5-19.6-41.5-43.7V141.9c0-24.1 18.6-43.7 41.5-43.7h331.9c22.9 0 41.5 19.6 41.5 43.7v174.7c0 24.1-18.6 43.7-41.5 43.7zM886.3 928H554.4c-22.9 0-41.5-19.6-41.5-43.7v-393c0-24.1 18.6-43.7 41.5-43.7h331.9c22.9 0 41.5 19.6 41.5 43.7v393c0 24.1-18.6 43.7-41.5 43.7z"></path></svg>