<?xml version="1.0" standalone="no"?><!DOCTYPE svg PUBLIC "-//W3C//DTD SVG 1.1//EN" "http://www.w3.org/Graphics/SVG/1.1/DTD/svg11.dtd"><svg t="1715258866596" class="icon" viewBox="0 0 1024 1024" version="1.1" xmlns="http://www.w3.org/2000/svg" p-id="6532" xmlns:xlink="http://www.w3.org/1999/xlink" width="200" height="200"><path d="M968.1 163.6L709 884.7c-10.5 29.1-38.1 48.5-69 48.5H179c-34.1 0-66.4-15-88.5-40.9l-4.1-4.8c-9.8-11.5-1.6-29.3 13.5-29.3h479.4c30.9 0 58.5-19.4 69-48.5L908.8 84.6c10.3-28.8-11-59.1-41.6-59.1H319c-21.7 0-41.1 13.6-48.4 34.1L8.4 789.5C-6.9 832.1 1.7 879.5 31 914l25.5 30c28.3 33.2 69.7 52.4 113.3 52.4h526.9c30.9 0 58.5-19.4 69-48.5l254.9-709.5c13.1-36.4-13.8-74.8-52.5-74.8z m-596.8 68.2l8-27.7c2.9-10 10.8-16.8 19.7-16.8h290.2c11.3 0 19.3 13.4 15.6 26.2l-6.1 21.1c-2.9 10-10.8 16.8-19.7 16.8H383c-8.5 0-14.5-10-11.7-19.6z m-42.7 129.4l8.2-30.3c3-11 11-18.4 20.1-18.4h296.7c11.6 0 19.7 14.7 15.9 28.7l-6.2 23.1c-3 11-11 18.4-20.1 18.4H340.5c-8.7 0-14.8-11-11.9-21.5z" p-id="6533"></path></svg>