<svg xmlns="http://www.w3.org/2000/svg" viewBox="0 0 151.63 201.82"><text transform="translate(18.11 139.54)" style="isolation:isolate;font-size:115.15654754638672px;font-family:MicrosoftYaHei, Microsoft YaHei">月</text><path d="M151.37,126.61l.26-.19-.39-101.94.09-.09c0-.3-.06-.59-.09-.89v-.1h0A26.39,26.39,0,0,0,124.8,0H26.55A26.47,26.47,0,0,0,0,26.39H0V175.28a26.55,26.55,0,0,0,26.55,26.54h82.32a10.48,10.48,0,0,0,7.5-3.06l31.89-31.93a10.58,10.58,0,0,0,3.11-7.1l.11-1.15h-.11ZM139,157.39H108.06V189H27.92a15.5,15.5,0,0,1-15.46-15.49V28.26A15.66,15.66,0,0,1,27.92,12.82h95.54A15.65,15.65,0,0,1,139,28.26v6L138.75,136l.28-.21,0,0Z" transform="translate(0 0)"/></svg>
