<svg viewBox="0 0 1304 1024" version="1.1" xmlns="http://www.w3.org/2000/svg" width="128" height="128"><path d="M1302.196532 952.971098c5.919075 17.757225 0 35.514451-11.83815 47.352601-11.83815 11.83815-29.595376 23.676301-47.352602 23.676301H59.190751c-17.757225 0-35.514451-5.919075-47.352601-23.676301s-11.83815-29.595376-11.83815-47.352601l118.381503-591.907514c5.919075-29.595376 29.595376-47.352601 59.190751-47.352601h118.381503c35.514451 0 59.190751 23.676301 59.190752 59.190751s-23.676301 59.190751-59.190752 59.190752H224.924855l-94.705202 473.526011h1041.757226l-94.705203-473.526011H1006.242775c-35.514451 0-59.190751-23.676301-59.190752-59.190752s23.676301-59.190751 59.190752-59.190751h118.381502c29.595376 0 53.271676 17.757225 59.190752 47.352601l118.381503 591.907514zM514.959538 378.820809c-29.595376-17.757225-65.109827-5.919075-76.947977 23.676301-17.757225 23.676301-11.83815 59.190751 17.757225 76.947977L591.907514 556.393064v183.491329c0 35.514451 23.676301 59.190751 59.190752 59.190752s59.190751-23.676301 59.190751-59.190752V556.393064l136.138729-76.947977c29.595376-17.757225 35.514451-53.271676 23.6763-82.867052-17.757225-29.595376-53.271676-35.514451-82.867052-23.676301l-76.947977 47.352601V313.710983L846.427746 236.763006c29.595376-17.757225 35.514451-53.271676 23.6763-82.867052-17.757225-29.595376-53.271676-35.514451-82.867052-23.676301L710.289017 177.572254V59.190751c0-35.514451-23.676301-59.190751-59.190751-59.190751s-59.190751 23.676301-59.190752 59.190751v118.381503l-76.947976-41.433526c-29.595376-17.757225-65.109827-5.919075-76.947977 23.676301-17.757225 23.676301-11.83815 59.190751 17.757225 76.947977L591.907514 313.710983v106.543352l-76.947976-41.433526z"></path></svg>
